<svg width="1200" height="630" viewBox="0 0 1200 630" role="img" xmlns="http://www.w3.org/2000/svg">
<rect width="1200" height="630" fill="#0f1623"/>
<circle cx="920" cy="315" r="250" fill="none" stroke="#2563eb" stroke-width="1" opacity="0.35"/>
<circle cx="920" cy="315" r="188" fill="none" stroke="#2563eb" stroke-width="1" opacity="0.45"/>
<circle cx="920" cy="315" r="125" fill="none" stroke="#2563eb" stroke-width="1" opacity="0.55"/>
<circle cx="920" cy="315" r="63" fill="none" stroke="#2563eb" stroke-width="1" opacity="0.65"/>
<line x1="920" y1="65" x2="920" y2="565" stroke="#2563eb" stroke-width="0.8" opacity="0.25"/>
<line x1="670" y1="315" x2="1170" y2="315" stroke="#2563eb" stroke-width="0.8" opacity="0.25"/>
<line x1="743" y1="138" x2="1097" y2="492" stroke="#2563eb" stroke-width="0.8" opacity="0.18"/>
<line x1="1097" y1="138" x2="743" y2="492" stroke="#2563eb" stroke-width="0.8" opacity="0.18"/>
<path d="M920 315 L1170 315 A250 250 0 0 0 920 65 Z" fill="#2563eb" opacity="0.08"/>
<path d="M920 315 L1170 315 A250 250 0 0 0 920 65 Z" fill="none" stroke="#2563eb" stroke-width="1.5" opacity="0.4"/>
<circle cx="1097" cy="138" r="9" fill="#2563eb" opacity="0.95"/>
<circle cx="1097" cy="138" r="20" fill="none" stroke="#2563eb" stroke-width="1.5" opacity="0.5"/>
<circle cx="1097" cy="138" r="33" fill="none" stroke="#2563eb" stroke-width="1" opacity="0.25"/>
<circle cx="800" cy="220" r="6" fill="#2563eb" opacity="0.7"/>
<circle cx="800" cy="220" r="15" fill="none" stroke="#2563eb" stroke-width="1" opacity="0.3"/>
<circle cx="920" cy="315" r="7" fill="#ffffff" opacity="0.9"/>
<text x="88" y="290" font-family="system-ui,-apple-system,BlinkMacSystemFont,Segoe UI,sans-serif" font-size="112" font-weight="700" fill="#ffffff" letter-spacing="-3">Mem<tspan fill="#2563eb">Radar</tspan></text>
<text x="92" y="360" font-family="system-ui,-apple-system,BlinkMacSystemFont,Segoe UI,sans-serif" font-size="30" font-weight="500" fill="#e2e8f0" letter-spacing="0.3">RAM &amp; SSD Price Tracker for PC Builders</text>
<line x1="92" y1="390" x2="660" y2="390" stroke="#2563eb" stroke-width="1.5" opacity="0.5"/>
<text x="92" y="432" font-family="system-ui,-apple-system,BlinkMacSystemFont,Segoe UI,sans-serif" font-size="24" font-weight="500" fill="#93c5fd" letter-spacing="0.5">memradar.com</text>
</svg>
